<svg width="235" height="205" viewBox="0 0 235 205" fill="none" xmlns="http://www.w3.org/2000/svg">
<g clip-path="url(#clip0)">
<path d="M38.9778 71.3643C38.428 71.4197 37.8747 71.4326 37.3229 71.4029C37.2289 71.3926 37.1345 71.4197 37.0602 71.4783C36.9859 71.5369 36.9376 71.6223 36.9257 71.7162L35.8701 79.6366C35.7889 80.2115 35.5535 80.7538 35.1891 81.2057C34.8886 81.5653 34.6652 81.9829 34.5328 82.4325C34.4005 82.8821 34.3619 83.3542 34.4195 83.8193V97.2734C34.4195 97.2734 34.3514 99.0673 35.7293 99.0673C37.3785 99.2746 39.0471 99.2746 40.6962 99.0673C40.6962 99.0673 41.7995 98.8584 41.7995 97.2031V83.9555C41.8836 83.4934 41.8663 83.0184 41.7487 82.5635C41.6311 82.1087 41.4161 81.6849 41.1185 81.3215C40.7662 80.8679 40.5385 80.3302 40.4579 79.7615L39.3614 71.6754C39.349 71.5845 39.3024 71.5017 39.2311 71.4439C39.1599 71.3861 39.0693 71.3577 38.9778 71.3643Z" fill="white"/>
<path d="M38.208 99.4495C37.3745 99.4495 36.5418 99.3977 35.7147 99.2944C35.5299 99.2987 35.3462 99.2648 35.1752 99.1948C35.0041 99.1247 34.8493 99.0201 34.7206 98.8873C34.1599 98.3048 34.1911 97.307 34.1927 97.2648L34.1925 83.8331C34.134 83.3393 34.1768 82.8387 34.3182 82.3619C34.4595 81.8851 34.6966 81.4422 35.0149 81.0601C35.3523 80.6408 35.5701 80.1379 35.6453 79.6049L36.7007 71.6862C36.7212 71.5339 36.8003 71.3956 36.921 71.3006C37.0418 71.2056 37.1948 71.1613 37.3476 71.1772C37.8836 71.2055 38.4211 71.1925 38.9551 71.1384L38.9614 71.1378C39.1105 71.127 39.258 71.1734 39.3741 71.2675C39.4902 71.3616 39.5661 71.4964 39.5864 71.6445L40.6829 79.7311C40.7582 80.26 40.9702 80.7601 41.2977 81.1821C41.6132 81.5677 41.8417 82.017 41.9675 82.4992C42.0933 82.9814 42.1134 83.4851 42.0265 83.9757V97.203C42.0265 99.0254 40.7514 99.288 40.7385 99.2905C39.8991 99.3963 39.054 99.4494 38.208 99.4495ZM37.2921 71.6287C37.2583 71.6271 37.2252 71.638 37.1991 71.6595C37.173 71.681 37.1558 71.7114 37.1509 71.7449L36.0951 79.6666C36.0083 80.2828 35.7562 80.8639 35.3658 81.3483C35.0851 81.6846 34.8763 82.0749 34.7523 82.4951C34.6283 82.9153 34.5917 83.3565 34.6448 83.7913L34.6465 83.8193V97.2734C34.6461 97.2902 34.622 98.1315 35.0487 98.5735C35.137 98.6633 35.2433 98.7336 35.3606 98.7796C35.4779 98.8255 35.6035 98.8463 35.7294 98.8403L35.7577 98.8421C37.3881 99.0468 39.0376 99.0468 40.6679 98.8421C40.6895 98.8368 41.5725 98.6353 41.5725 97.203L41.5762 83.9149C41.6548 83.4851 41.6388 83.0433 41.5295 82.6203C41.4201 82.1973 41.2199 81.8032 40.9429 81.4654C40.5647 80.9794 40.3201 80.403 40.2332 79.7934L39.1365 71.7058C39.1317 71.6727 39.1147 71.6425 39.0888 71.6212C39.063 71.5999 39.0301 71.589 38.9966 71.5907C38.4365 71.6467 37.8729 71.6598 37.3108 71.6297C37.3046 71.629 37.2983 71.6287 37.2921 71.6287H37.2921Z" fill="#3F3D56"/>
<path d="M37.3116 84.06H38.9847C39.6499 84.06 40.288 84.3244 40.7584 84.7949C41.2288 85.2655 41.4931 85.9037 41.4931 86.5692V92.8659C41.4931 93.5314 41.2288 94.1696 40.7584 94.6402C40.288 95.1107 39.6499 95.3751 38.9847 95.3751H37.3116C36.6464 95.3751 36.0083 95.1107 35.5379 94.6402C35.0675 94.1696 34.8032 93.5314 34.8032 92.8659V86.5692C34.8032 86.2397 34.8681 85.9134 34.9942 85.609C35.1202 85.3045 35.305 85.0279 35.5379 84.7949C35.7708 84.5619 36.0474 84.3771 36.3517 84.251C36.656 84.1249 36.9822 84.06 37.3116 84.06Z" fill="#30F0F2"/>
<path d="M6.5537 199.711H12.0082L14.6031 178.666L6.55273 178.666L6.5537 199.711Z" fill="#9F616A"/>
<path d="M5.16248 197.93L15.9043 197.929H15.9047C17.7202 197.929 19.4613 198.651 20.7451 199.935C22.0289 201.219 22.7501 202.961 22.7502 204.777V204.999L5.1628 205L5.16248 197.93Z" fill="#2F2E41"/>
<path d="M3.1246 124.543C3.1246 124.543 0.760673 127.216 4.67497 137.636L3.9855 194.768L16.6705 194.52L19.4588 166.652L24.5355 125.983L3.1246 124.543Z" fill="#2F2E41"/>
<path d="M28.8861 132.442L28.7473 132.421C12.5196 129.945 0.273922 127.572 0.152122 127.548L0 127.519L4.25395 117.169C4.22035 116.087 3.29952 85.7179 5.06229 76.9924C6.76876 68.5456 14.8125 67.1613 15.7291 67.0311L16.6495 63.9806L28.2774 70.033L30.3054 77.0148L30.7173 96.1501L28.8861 132.442Z" fill="#3F3D56"/>
<path d="M35.8895 93.0574C35.3659 93.0573 34.8479 93.1656 34.3682 93.3755C33.8884 93.5854 33.4573 93.8923 33.1019 94.277H13.5573L6.39819 95.8013L7.5736 104.87L33.0405 99.3913C33.4621 99.8676 33.9963 100.231 34.5943 100.447C35.1923 100.664 35.835 100.727 36.4638 100.632C37.0926 100.536 37.6874 100.284 38.1939 99.8996C38.7004 99.5148 39.1025 99.0093 39.3635 98.4291C39.6245 97.8489 39.736 97.2126 39.6879 96.5782C39.6398 95.9438 39.4336 95.3316 39.0882 94.7974C38.7427 94.2632 38.269 93.8241 37.7102 93.5202C37.1515 93.2163 36.5255 93.0572 35.8895 93.0574H35.8895Z" fill="#9F616A"/>
<path d="M36.059 60.5525C38.5543 55.9864 36.8767 50.2614 32.312 47.7654C27.7473 45.2693 22.024 46.9474 19.5287 51.5135C17.0334 56.0796 18.711 61.8046 23.2757 64.3006C27.8404 66.7966 33.5637 65.1185 36.059 60.5525Z" fill="#9F616A"/>
<path d="M18.9348 48.5004L18.4781 47.581L20.7759 46.439C20.7759 46.439 23.3106 42.3134 27.8974 43.4728C32.4842 44.6322 34.5478 45.326 34.5478 45.326L36.8398 46.4796L35.6895 47.6245L37.7531 48.3184L36.3744 49.0035L37.9785 49.9258L37.115 54.6537C37.115 54.6537 35.6808 51.0678 32.9235 52.4381C30.1662 53.8085 25.1228 51.7298 25.1228 51.7298L20.7411 60.2122C20.7411 60.2122 19.8372 57.2387 18.2255 58.0316C18.2255 58.0316 14.1081 51.4724 18.9348 48.5004Z" fill="#2F2E41"/>
<path d="M7.69872 106.57L5.46362 99.9194L4.92297 77.7504L5.8753 74.6051C6.21808 73.473 6.78581 72.4218 7.54447 71.5144C8.30314 70.6071 9.23711 69.8623 10.2904 69.3247C11.3437 68.7871 12.4947 68.4677 13.6744 68.3858C14.854 68.3038 16.0381 68.4609 17.1556 68.8476C18.2731 69.2344 19.3011 69.8428 20.1779 70.6365C21.0547 71.4302 21.7623 72.3927 22.2583 73.4665C22.7543 74.5403 23.0284 75.7032 23.0644 76.8855C23.1003 78.0679 22.8972 79.2453 22.4673 80.3472L17.3629 93.4313L17.6224 93.935L28.6811 93.8454L32.6093 100.918L7.69872 106.57Z" fill="#3F3D56"/>
<path d="M118.343 103.837C118.755 103.559 119.102 103.194 119.358 102.767C119.615 102.341 119.774 101.863 119.826 101.368C119.878 100.873 119.821 100.373 119.658 99.9021C119.496 99.4317 119.233 99.0025 118.886 98.6449L124.337 87.8442L118.094 88.5687L113.875 98.7141C113.313 99.3356 112.998 100.142 112.991 100.98C112.983 101.818 113.283 102.629 113.834 103.261C114.385 103.892 115.148 104.3 115.979 104.406C116.81 104.512 117.651 104.31 118.343 103.837Z" fill="#FFB7B7"/>
<path d="M162.059 180.344L157.146 180.343L154.809 161.389L162.06 161.39L162.059 180.344Z" fill="#FFB7B7"/>
<path d="M163.312 185.107L147.472 185.106V184.906C147.472 183.27 148.121 181.702 149.278 180.545C150.434 179.389 152.002 178.739 153.637 178.739H153.638L163.312 178.739L163.312 185.107Z" fill="#2F2E41"/>
<path d="M135.212 180.344L130.299 180.343L127.962 161.389L135.213 161.39L135.212 180.344Z" fill="#FFB7B7"/>
<path d="M135.262 185.107L119.422 185.106V184.906C119.422 183.27 120.072 181.702 121.228 180.545C122.384 179.389 123.953 178.739 125.588 178.739H125.588L135.263 178.739L135.262 185.107Z" fill="#2F2E41"/>
<path d="M134.809 100.29L130.001 111.371L126.034 175.062L136.052 174.661L138.788 144.299L147.228 117.257L152.08 147.405L154.084 173.86L162.373 174.219L165.676 100.29H134.809Z" fill="#2F2E41"/>
<path d="M158.845 45.6108L144.909 45.9595L136.727 50.1612L136.278 81.16L131.174 102.562C131.174 102.562 163.059 104.757 167.467 101.551L162.257 77.1003L169.244 50.6764L158.845 45.6108Z" fill="#30F0F2"/>
<path d="M138.879 50.675L137.581 49.7985C137.581 49.7985 132.206 51.41 130.618 58.5791C130.618 58.5791 129.402 62.1759 128.869 64.6489C128.257 67.4853 114.747 93.5389 114.747 93.5389L122.835 95.8601L137.665 71.8712L138.879 50.675Z" fill="#30F0F2"/>
<path d="M169.026 107.812C168.706 107.431 168.473 106.984 168.344 106.504C168.216 106.023 168.194 105.52 168.28 105.03C168.367 104.539 168.56 104.074 168.846 103.667C169.132 103.259 169.503 102.92 169.935 102.671L167.672 90.7858L173.474 93.2043L174.733 104.12C175.102 104.873 175.182 105.734 174.958 106.542C174.734 107.349 174.222 108.047 173.519 108.502C172.815 108.957 171.969 109.138 171.141 109.011C170.313 108.884 169.561 108.457 169.026 107.812Z" fill="#FFB7B7"/>
<path d="M167.147 51.0466L168.636 50.562C168.636 50.562 173.358 53.5935 172.909 60.9229C172.909 60.9229 173.086 64.7156 172.917 67.2398C172.723 70.135 175.321 98.9051 175.321 98.9051H166.906L163.3 72.8514L167.147 51.0466Z" fill="#30F0F2"/>
<path d="M162.266 32.6054C162.266 34.5168 161.7 36.3852 160.638 37.9744C159.577 39.5636 158.068 40.8023 156.302 41.5337C154.537 42.2652 152.595 42.4565 150.721 42.0836C148.847 41.7108 147.125 40.7904 145.774 39.4388C144.423 38.0873 143.503 36.3654 143.13 34.4908C142.757 32.6161 142.949 30.673 143.68 28.9072C144.411 27.1413 145.649 25.6321 147.238 24.5702C148.827 23.5083 150.695 22.9415 152.605 22.9415C155.161 22.9351 157.615 23.9446 159.427 25.7479C161.239 27.5512 162.26 30.0006 162.266 32.5573C162.266 32.5733 162.266 32.5894 162.266 32.6054Z" fill="#FFB7B7"/>
<path d="M142.976 19.625C144.108 17.1907 146.298 17.672 148.214 18.4971C150.639 17.959 152.946 16.3477 155.56 17.3006C158.134 21.0459 166.777 19.944 164.938 26.0415C164.936 27.5026 167.687 26.6521 167.207 29.045C168.664 33.6502 161.947 42.3717 158.09 40.5351C159.044 38.7867 161.223 34.8154 157.918 34.4216C150.81 41.0374 157.185 21.8234 148.254 27.4112C145.297 30.1183 141.248 22.3328 142.976 19.625Z" fill="#2F2E41"/>
<path d="M170.717 108.776C171.177 108.868 171.652 108.859 172.108 108.748C172.564 108.637 172.99 108.428 173.357 108.134C173.723 107.841 174.021 107.47 174.229 107.049C174.436 106.628 174.549 106.167 174.56 105.698L198.818 82.8584L193.359 78.5032L171.19 102.38C170.4 102.416 169.651 102.739 169.084 103.29C168.517 103.84 168.172 104.58 168.114 105.368C168.055 106.156 168.288 106.939 168.768 107.567C169.248 108.195 169.941 108.625 170.717 108.776Z" fill="#9F616A"/>
<path d="M195.38 86.5503L190.661 81.0178C190.527 80.8604 190.428 80.6759 190.371 80.4769C190.315 80.2778 190.302 80.0689 190.333 79.8644C190.365 79.6599 190.44 79.4645 190.553 79.2916C190.667 79.1188 190.817 78.9724 190.992 78.8626L197.136 75.0153C197.945 74.3325 198.992 73.9985 200.047 74.0865C201.101 74.1745 202.078 74.6774 202.763 75.4849C203.448 76.2923 203.784 77.3385 203.699 78.3939C203.614 79.4492 203.114 80.4277 202.308 81.1148L197.56 86.5622C197.424 86.7182 197.256 86.8429 197.067 86.9281C196.879 87.0132 196.674 87.0567 196.467 87.0555C196.261 87.0544 196.056 87.0087 195.869 86.9215C195.681 86.8343 195.514 86.7077 195.38 86.5503V86.5503Z" fill="#CBCBCB"/>
<path d="M182.689 199.249L176.758 199.249L173.937 176.365L182.69 176.365L182.689 199.249Z" fill="#9F616A"/>
<path d="M184.202 205L165.078 204.999V204.757C165.078 202.783 165.862 200.889 167.258 199.492C168.654 198.096 170.547 197.312 172.521 197.312H172.522L184.202 197.312L184.202 205Z" fill="#2F2E41"/>
<path d="M230.1 199.249L224.169 199.249L221.347 176.365L230.101 176.365L230.1 199.249Z" fill="#9F616A"/>
<path d="M231.612 205L212.488 204.999V204.757C212.488 202.783 213.273 200.889 214.669 199.492C216.064 198.096 217.958 197.312 219.932 197.312H219.932L231.613 197.312L231.612 205Z" fill="#2F2E41"/>
<path d="M214.146 98.6806L220.125 76.5857L212.369 72.2249H201.543L197.332 76.7311C197.332 76.7311 190.297 81.6271 192 87.0517L194.747 99.4074L190.546 119.031L169.379 148.394L164.368 177.237L184.092 182.409L205.421 140.399L215.762 186.915L235 185.947L228.371 129.547C228.371 129.547 226.481 112.365 216.576 101.638L214.146 98.6806Z" fill="#2F2E41"/>
<path d="M226.493 118.23C226.826 117.9 227.083 117.5 227.245 117.059C227.408 116.619 227.471 116.148 227.432 115.68C227.393 115.212 227.252 114.759 227.018 114.352C226.785 113.944 226.465 113.593 226.081 113.323L221.443 82.0189L214.785 84.1219L221.449 114.271C221.038 114.946 220.889 115.748 221.03 116.526C221.17 117.304 221.591 118.003 222.213 118.491C222.835 118.979 223.614 119.222 224.402 119.174C225.191 119.126 225.935 118.79 226.493 118.23Z" fill="#9F616A"/>
<path d="M222.589 86.9318L215.366 87.7649C215.161 87.7886 214.953 87.7677 214.756 87.7037C214.559 87.6396 214.379 87.5339 214.226 87.3938C214.074 87.2536 213.954 87.0823 213.874 86.8915C213.794 86.7006 213.756 86.4948 213.763 86.288L213.997 79.041C213.881 77.9886 214.188 76.9334 214.849 76.1069C215.511 75.2803 216.473 74.7498 217.525 74.6316C218.576 74.5134 219.632 74.8172 220.46 75.4764C221.288 76.1356 221.821 77.0964 221.943 78.1481L223.815 85.1286C223.868 85.3285 223.878 85.5376 223.844 85.7416C223.809 85.9456 223.731 86.1398 223.615 86.3109C223.498 86.4821 223.347 86.6261 223.17 86.7333C222.993 86.8404 222.795 86.9081 222.589 86.9318V86.9318Z" fill="#CBCBCB"/>
<path d="M194.849 65.9415V56.632C194.849 53.3235 196.163 50.1505 198.502 47.811C200.841 45.4715 204.013 44.1572 207.32 44.1572C210.628 44.1572 213.8 45.4715 216.139 47.811C218.477 50.1505 219.791 53.3235 219.791 56.632V65.9415C219.791 66.3858 219.614 66.8117 219.3 67.1258C218.986 67.44 218.56 67.6167 218.116 67.6172H196.524C196.08 67.6167 195.655 67.44 195.34 67.1258C195.026 66.8117 194.85 66.3858 194.849 65.9415Z" fill="#2F2E41"/>
<path d="M209.143 66.2796C213.574 63.8568 215.203 58.2996 212.78 53.8674C210.358 49.4352 204.803 47.8063 200.372 50.2292C195.941 52.652 194.313 58.2092 196.735 62.6414C199.157 67.0736 204.712 68.7025 209.143 66.2796Z" fill="#9F616A"/>
<path d="M191.899 57.3767C191.902 54.7604 192.942 52.2521 194.792 50.4022C196.641 48.5522 199.149 47.5116 201.764 47.5086H203.625C206.241 47.5116 208.748 48.5522 210.598 50.4022C212.447 52.2522 213.488 54.7604 213.49 57.3767V57.5629H209.557L208.215 53.8049L207.947 57.5629H205.914L205.237 55.6668L205.102 57.5629H191.899V57.3767Z" fill="#2F2E41"/>
<path d="M203.858 68.664C203.673 68.4139 203.563 68.1166 203.54 67.8065C203.516 67.4964 203.581 67.1861 203.727 66.9112C205.699 63.1583 208.461 56.2238 204.795 51.9473L204.532 51.64H215.174V67.6225L205.506 69.3288C205.408 69.3461 205.309 69.3549 205.21 69.355C204.946 69.355 204.686 69.2923 204.451 69.1722C204.216 69.0521 204.012 68.8779 203.858 68.664Z" fill="#2F2E41"/>
<path d="M106.042 77.1746C105.907 77.3134 105.783 77.4626 105.672 77.6208L88.3319 77.1965L86.309 73.4989L80.3314 75.8233L83.2766 82.7173C83.5145 83.2742 83.9266 83.7389 84.4511 84.0416C84.9755 84.3443 85.5839 84.4687 86.185 84.396L105.776 82.0287C106.238 82.6139 106.867 83.0446 107.58 83.2633C108.293 83.482 109.055 83.4785 109.766 83.2532C110.477 83.0279 111.102 82.5915 111.559 82.0021C112.015 81.4126 112.282 80.6981 112.323 79.9534C112.363 79.2088 112.177 78.4694 111.787 77.8335C111.398 77.1976 110.824 76.6955 110.142 76.3938C109.46 76.0921 108.703 76.0053 107.97 76.1447C107.238 76.2842 106.565 76.6434 106.042 77.1746H106.042Z" fill="#FFB7B7"/>
<path d="M49.5165 182.513H55.2179L57.9302 160.515L49.5155 160.515L49.5165 182.513Z" fill="#FFB7B7"/>
<path d="M48.0621 180.651L59.2904 180.651H59.2909C61.1886 180.651 63.0085 181.405 64.3504 182.747C65.6923 184.089 66.4462 185.91 66.4464 187.808V188.041L48.0625 188.041L48.0621 180.651Z" fill="#2F2E41"/>
<path d="M101.288 182.386L106.531 180.146L100.386 158.85L92.6483 162.157L101.288 182.386Z" fill="#FFB7B7"/>
<path d="M99.2191 181.245L109.545 176.833L109.545 176.833C111.29 176.087 113.26 176.065 115.021 176.772C116.782 177.48 118.191 178.857 118.936 180.603L119.028 180.817L102.122 188.041L99.2191 181.245Z" fill="#2F2E41"/>
<path d="M77.2295 81.9399L77.6417 88.6229L65.5906 89.9131L52.9803 91.2629L56.6918 81.115L77.2295 81.9399Z" fill="#FFB7B7"/>
<path d="M77.6529 84.3379C77.5162 84.2842 63.9043 78.9878 55.5433 83.3186L55.3376 83.4252L53.6697 75.2127L52.7192 57.5562L58.9037 54.6331L60.6065 50.8177L72.2049 50.1311L74.5883 53.4007L82.7031 56.061L77.8532 84.4172L77.6529 84.3379Z" fill="#E4E4E4"/>
<path d="M78.0791 68.4006L79.5137 57.125L82.7803 56.1305L82.8354 56.1508C82.9107 56.1785 84.686 56.8582 85.172 59.3167C85.6385 61.6765 89.1515 76.3614 89.1869 76.5096L89.2221 76.6565L80.968 79.9599L78.0791 68.4006Z" fill="#E4E4E4"/>
<path d="M97.0414 178.52L108.029 176.266L90.4677 127.794L84.4575 111.261C84.4575 111.261 80.6455 98.0044 78.9232 92.8744L77.8838 85.9912L53.2795 88.7154C53.2795 88.7154 46.4076 98.8105 48.4952 115.265L47.551 177.111L58.5385 177.675L67.7416 115.3L83.8941 149.493C83.8941 149.493 88.9852 164.085 92.6277 167.248L97.0414 178.52Z" fill="#2F2E41"/>
<path d="M63.1464 91.0109C62.9529 91.0063 62.7594 91.017 62.5676 91.0428L51.0891 78.0352L52.4244 74.0373L46.6561 71.2331L43.6048 78.0807C43.3583 78.6339 43.2978 79.2521 43.4325 79.8426C43.5672 80.4331 43.8897 80.9639 44.3516 81.3555L59.407 94.1161C59.2922 94.853 59.4044 95.6074 59.7287 96.2789C60.0529 96.9505 60.5739 97.5073 61.2222 97.8755C61.8706 98.2436 62.6157 98.4056 63.3583 98.3398C64.1009 98.274 64.8059 97.9837 65.3796 97.5073C65.9532 97.031 66.3683 96.3912 66.5696 95.6732C66.7708 94.9551 66.7488 94.1927 66.5064 93.4875C66.2639 92.7823 65.8126 92.1676 65.2124 91.7252C64.6122 91.2828 63.8916 91.0337 63.1464 91.0109Z" fill="#FFB7B7"/>
<path d="M45.6169 73.1602L50.1043 60.3745C50.6086 58.8673 51.2406 57.9517 51.9827 57.6529C52.1288 57.5871 52.2871 57.5524 52.4474 57.5509C52.6077 57.5494 52.7665 57.5812 52.9139 57.6442L54.926 60.1871L56.7936 68.0347L52.0054 79.3011L45.6169 73.1602Z" fill="#E4E4E4"/>
<path d="M75.3192 47.4853H55.6196C55.2144 47.4848 54.8259 47.3236 54.5394 47.037C54.2528 46.7504 54.0916 46.3617 54.0912 45.9564V37.4626C54.0912 34.444 55.29 31.5491 57.4238 29.4146C59.5576 27.2801 62.4517 26.081 65.4694 26.081C68.4871 26.081 71.3812 27.2801 73.515 29.4146C75.6488 31.5491 76.8476 34.444 76.8476 37.4626V45.9564C76.8471 46.3617 76.686 46.7504 76.3994 47.037C76.1129 47.3236 75.7244 47.4848 75.3192 47.4853Z" fill="#2F2E41"/>
<path d="M67.8074 47.2875C72.4147 47.2875 76.1495 43.5515 76.1495 38.9429C76.1495 34.3343 72.4147 30.5983 67.8074 30.5983C63.2002 30.5983 59.4653 34.3343 59.4653 38.9429C59.4653 43.5515 63.2002 47.2875 67.8074 47.2875Z" fill="#FFB7B7"/>
<path d="M79.5394 38.312H67.4936L67.3701 36.5821L66.7525 38.312H64.8977L64.6529 34.8833L63.4288 38.312H59.8398V38.1421C59.8425 35.7551 60.7917 33.4666 62.479 31.7787C64.1664 30.0909 66.4541 29.1414 68.8404 29.1387H70.5388C72.9251 29.1414 75.2128 30.0909 76.9002 31.7787C78.5876 33.4666 79.5367 35.7551 79.5394 38.1421L79.5394 38.312Z" fill="#2F2E41"/>
<path d="M67.3949 49.0708C67.3042 49.0707 67.2137 49.0627 67.1244 49.0469L58.304 47.4902V32.9081H68.0136L67.7732 33.1884C64.4287 37.0903 66.9484 43.4171 68.7481 46.8412C68.8807 47.0919 68.9398 47.3751 68.9187 47.658C68.8975 47.941 68.7969 48.2122 68.6284 48.4404C68.4873 48.6356 68.3019 48.7945 68.0875 48.904C67.8731 49.0136 67.6357 49.0708 67.3949 49.0708Z" fill="#2F2E41"/>
<path d="M173.054 84.1215C172.504 84.177 171.951 84.1899 171.399 84.1601C171.305 84.1499 171.211 84.1769 171.137 84.2356C171.062 84.2942 171.014 84.3796 171.002 84.4735L169.946 92.3939C169.865 92.9688 169.63 93.511 169.265 93.963C168.965 94.3226 168.742 94.7402 168.609 95.1898C168.477 95.6394 168.438 96.1114 168.496 96.5766V110.031C168.496 110.031 168.428 111.825 169.806 111.825C171.455 112.032 173.123 112.032 174.773 111.825C174.773 111.825 175.876 111.616 175.876 109.96V96.7128C175.96 96.2506 175.943 95.7757 175.825 95.3208C175.707 94.866 175.492 94.4422 175.195 94.0788C174.842 93.6252 174.615 93.0874 174.534 92.5188L173.438 84.4326C173.425 84.3417 173.379 84.259 173.307 84.2012C173.236 84.1434 173.146 84.1149 173.054 84.1215Z" fill="white"/>
<path d="M172.284 112.207C171.451 112.207 170.618 112.155 169.791 112.052C169.606 112.056 169.423 112.022 169.251 111.952C169.08 111.882 168.926 111.777 168.797 111.645C168.236 111.062 168.267 110.064 168.269 110.022L168.269 96.5904C168.21 96.0965 168.253 95.5959 168.394 95.1192C168.536 94.6424 168.773 94.1994 169.091 93.8174C169.429 93.398 169.646 92.8952 169.722 92.3621L170.777 84.4435C170.798 84.2912 170.877 84.1529 170.997 84.0578C171.118 83.9628 171.271 83.9186 171.424 83.9345C171.96 83.9627 172.497 83.9498 173.031 83.8956L173.038 83.8951C173.187 83.8843 173.334 83.9306 173.45 84.0248C173.566 84.1189 173.642 84.2537 173.663 84.4018L174.759 92.4883C174.835 93.0172 175.046 93.5174 175.374 93.9394C175.689 94.325 175.918 94.7743 176.044 95.2565C176.17 95.7386 176.19 96.2423 176.103 96.733V109.96C176.103 111.783 174.828 112.045 174.815 112.048C173.975 112.154 173.13 112.207 172.284 112.207ZM171.368 84.3859C171.335 84.3843 171.301 84.3953 171.275 84.4168C171.249 84.4383 171.232 84.4687 171.227 84.5021L170.171 92.4239C170.085 93.04 169.833 93.6212 169.442 94.1056C169.161 94.4419 168.953 94.8322 168.829 95.2524C168.705 95.6726 168.668 96.1137 168.721 96.5486L168.723 96.5765V110.031C168.722 110.047 168.698 110.889 169.125 111.331C169.213 111.421 169.32 111.491 169.437 111.537C169.554 111.583 169.68 111.603 169.806 111.598L169.834 111.599C171.464 111.804 173.114 111.804 174.744 111.599C174.766 111.594 175.649 111.393 175.649 109.96L175.652 96.6721C175.731 96.2423 175.715 95.8006 175.606 95.3775C175.496 94.9545 175.296 94.5604 175.019 94.2226C174.641 93.7367 174.396 93.1603 174.309 92.5506L173.213 84.4631C173.208 84.4299 173.191 84.3998 173.165 84.3785C173.139 84.3572 173.106 84.3463 173.073 84.3479C172.513 84.404 171.949 84.417 171.387 84.387C171.381 84.3863 171.375 84.386 171.368 84.3859Z" fill="#3F3D56"/>
<path d="M171.388 96.8173H173.061C173.726 96.8173 174.364 97.0816 174.835 97.5522C175.305 98.0227 175.569 98.661 175.569 99.3264V105.623C175.569 106.289 175.305 106.927 174.835 107.397C174.364 107.868 173.726 108.132 173.061 108.132H171.388C170.723 108.132 170.085 107.868 169.614 107.397C169.144 106.927 168.88 106.289 168.88 105.623V99.3264C168.88 98.661 169.144 98.0227 169.614 97.5522C170.085 97.0816 170.723 96.8173 171.388 96.8173Z" fill="#30F0F2"/>
<path d="M116.28 73.2126C115.73 73.268 115.177 73.2809 114.625 73.2511C114.531 73.2409 114.437 73.2679 114.363 73.3266C114.288 73.3852 114.24 73.4706 114.228 73.5645L113.172 81.4849C113.091 82.0598 112.856 82.602 112.491 83.054C112.191 83.4136 111.968 83.8312 111.835 84.2808C111.703 84.7304 111.664 85.2024 111.722 85.6676V99.1217C111.722 99.1217 111.654 100.916 113.032 100.916C114.681 101.123 116.349 101.123 117.999 100.916C117.999 100.916 119.102 100.707 119.102 99.0513V85.8038C119.186 85.3416 119.169 84.8667 119.051 84.4118C118.933 83.957 118.718 83.5332 118.421 83.1698C118.069 82.7162 117.841 82.1784 117.76 81.6098L116.664 73.5237C116.651 73.4327 116.605 73.35 116.533 73.2922C116.462 73.2344 116.372 73.2059 116.28 73.2126Z" fill="white"/>
<path d="M115.51 101.298C114.677 101.298 113.844 101.246 113.017 101.143C112.832 101.147 112.649 101.113 112.478 101.043C112.306 100.973 112.152 100.868 112.023 100.736C111.462 100.153 111.493 99.1553 111.495 99.113L111.495 85.6814C111.436 85.1876 111.479 84.6869 111.621 84.2102C111.762 83.7334 111.999 83.2905 112.317 82.9084C112.655 82.489 112.872 81.9862 112.948 81.4532L114.003 73.5345C114.024 73.3822 114.103 73.2439 114.223 73.1488C114.344 73.0538 114.497 73.0096 114.65 73.0255C115.186 73.0537 115.723 73.0408 116.257 72.9866L116.264 72.9861C116.413 72.9753 116.56 73.0216 116.676 73.1158C116.793 73.2099 116.868 73.3447 116.889 73.4928L117.985 81.5793C118.061 82.1082 118.273 82.6084 118.6 83.0304C118.916 83.416 119.144 83.8653 119.27 84.3475C119.396 84.8296 119.416 85.3333 119.329 85.824V99.0513C119.329 100.874 118.054 101.136 118.041 101.139C117.201 101.245 116.356 101.298 115.51 101.298ZM114.594 73.4769C114.561 73.4753 114.528 73.4863 114.501 73.5078C114.475 73.5293 114.458 73.5597 114.453 73.5931L113.397 81.5149C113.311 82.1311 113.059 82.7122 112.668 83.1966C112.387 83.5329 112.179 83.9232 112.055 84.3434C111.931 84.7636 111.894 85.2047 111.947 85.6396L111.949 85.6675V99.1217C111.948 99.1384 111.924 99.9798 112.351 100.422C112.439 100.512 112.546 100.582 112.663 100.628C112.78 100.674 112.906 100.695 113.032 100.689L113.06 100.69C114.69 100.895 116.34 100.895 117.97 100.69C117.992 100.685 118.875 100.484 118.875 99.0513L118.879 85.7631C118.957 85.3333 118.941 84.8916 118.832 84.4686C118.722 84.0455 118.522 83.6514 118.245 83.3136C117.867 82.8277 117.622 82.2513 117.536 81.6416L116.439 73.5541C116.434 73.5209 116.417 73.4908 116.391 73.4695C116.365 73.4482 116.332 73.4373 116.299 73.4389C115.739 73.495 115.175 73.508 114.613 73.478C114.607 73.4773 114.601 73.477 114.594 73.4769Z" fill="#3F3D56"/>
<path d="M114.614 85.9083H116.287C116.952 85.9083 117.59 86.1726 118.061 86.6432C118.531 87.1137 118.795 87.752 118.795 88.4174V94.7142C118.795 95.3797 118.531 96.0179 118.061 96.4885C117.59 96.959 116.952 97.2234 116.287 97.2234H114.614C113.949 97.2234 113.311 96.959 112.84 96.4885C112.37 96.0179 112.106 95.3797 112.106 94.7142V88.4174C112.106 87.752 112.37 87.1137 112.84 86.6432C113.311 86.1726 113.949 85.9083 114.614 85.9083Z" fill="#30F0F2"/>
<path d="M106.657 61.6618C106.108 61.7172 105.554 61.7301 105.003 61.7004C104.909 61.6901 104.814 61.7172 104.74 61.7758C104.666 61.8344 104.617 61.9199 104.605 62.0138L103.55 69.9341C103.469 70.5091 103.233 71.0513 102.869 71.5032C102.568 71.8629 102.345 72.2805 102.213 72.7301C102.08 73.1797 102.042 73.6517 102.099 74.1169V87.571C102.099 87.571 102.031 89.3649 103.409 89.3649C105.058 89.5722 106.727 89.5722 108.376 89.3649C108.376 89.3649 109.479 89.156 109.479 87.5006V74.2531C109.563 73.7909 109.546 73.3159 109.428 72.8611C109.311 72.4063 109.096 71.9825 108.798 71.619C108.446 71.1655 108.218 70.6277 108.138 70.059L107.041 61.9729C107.029 61.882 106.982 61.7993 106.911 61.7415C106.84 61.6837 106.749 61.6552 106.657 61.6618Z" fill="white"/>
<path d="M105.888 89.747C105.054 89.7471 104.221 89.6952 103.394 89.5919C103.21 89.5963 103.026 89.5624 102.855 89.4923C102.684 89.4223 102.529 89.3176 102.4 89.1849C101.84 88.6023 101.871 87.6046 101.872 87.5623L101.872 74.1307C101.814 73.6368 101.856 73.1362 101.998 72.6594C102.139 72.1827 102.376 71.7397 102.695 71.3577C103.032 70.9383 103.25 70.4355 103.325 69.9024L104.38 61.9838C104.401 61.8315 104.48 61.6931 104.601 61.5981C104.721 61.5031 104.874 61.4589 105.027 61.4747C105.563 61.503 106.101 61.49 106.635 61.4359L106.641 61.4354C106.79 61.4246 106.938 61.4709 107.054 61.5651C107.17 61.6592 107.246 61.794 107.266 61.9421L108.363 70.0286C108.438 70.5575 108.65 71.0576 108.977 71.4796C109.293 71.8653 109.521 72.3146 109.647 72.7967C109.773 73.2789 109.793 73.7826 109.706 74.2733V87.5005C109.706 89.3229 108.431 89.5856 108.418 89.588C107.579 89.6938 106.734 89.7469 105.888 89.747ZM104.972 61.9262C104.938 61.9246 104.905 61.9356 104.879 61.9571C104.853 61.9786 104.835 62.009 104.831 62.0424L103.775 69.9642C103.688 70.5803 103.436 71.1615 103.045 71.6458C102.765 71.9822 102.556 72.3725 102.432 72.7927C102.308 73.2128 102.271 73.654 102.325 74.0889L102.326 74.1168V87.571C102.326 87.5877 102.302 88.429 102.728 88.871C102.817 88.9609 102.923 89.0311 103.04 89.0771C103.158 89.1231 103.283 89.1438 103.409 89.1379L103.437 89.1396C105.068 89.3443 106.717 89.3443 108.348 89.1396C108.369 89.1343 109.252 88.9328 109.252 87.5005L109.256 74.2124C109.334 73.7826 109.319 73.3408 109.209 72.9178C109.1 72.4948 108.9 72.1007 108.623 71.7629C108.244 71.277 108 70.7006 107.913 70.0909L106.816 62.0034C106.811 61.9702 106.794 61.94 106.769 61.9187C106.743 61.8974 106.71 61.8866 106.676 61.8882C106.116 61.9443 105.553 61.9573 104.99 61.9272C104.984 61.9266 104.978 61.9262 104.972 61.9262Z" fill="#3F3D56"/>
<path d="M104.991 74.3575H106.664C107.33 74.3575 107.968 74.6219 108.438 75.0925C108.908 75.563 109.173 76.2012 109.173 76.8667V83.1635C109.173 83.829 108.908 84.4672 108.438 84.9377C107.968 85.4083 107.33 85.6727 106.664 85.6727H104.991C104.326 85.6727 103.688 85.4083 103.218 84.9377C102.747 84.4672 102.483 83.829 102.483 83.1635V76.8667C102.483 76.2012 102.747 75.563 103.218 75.0925C103.688 74.6219 104.326 74.3575 104.991 74.3575Z" fill="#30F0F2"/>
<path d="M18.0225 22.7806C22.4512 22.7806 26.0414 19.1893 26.0414 14.7592C26.0414 10.3292 22.4512 6.73792 18.0225 6.73792C13.5937 6.73792 10.0035 10.3292 10.0035 14.7592C10.0035 19.1893 13.5937 22.7806 18.0225 22.7806Z" fill="#F0F0F0"/>
<path d="M202.778 16.0427C207.207 16.0427 210.797 12.4514 210.797 8.02134C210.797 3.59127 207.207 0 202.778 0C198.35 0 194.759 3.59127 194.759 8.02134C194.759 12.4514 198.35 16.0427 202.778 16.0427Z" fill="#F0F0F0"/>
<path d="M111.042 36.2564C114.231 36.2564 116.816 33.6707 116.816 30.481C116.816 27.2914 114.231 24.7057 111.042 24.7057C107.853 24.7057 105.268 27.2914 105.268 30.481C105.268 33.6707 107.853 36.2564 111.042 36.2564Z" fill="#F0F0F0"/>
</g>
<defs>
<clipPath id="clip0">
<rect width="235" height="205" fill="white"/>
</clipPath>
</defs>
</svg>
