<svg width="600" height="399" viewBox="0 0 600 399" fill="none" xmlns="http://www.w3.org/2000/svg">
<path d="M337.452 24.496H0V232.712H337.452V24.496Z" fill="#E6E6E6"/>
<path d="M84.4332 64.6083H22.6288V104.414H84.4332V64.6083Z" fill="white"/>
<path d="M161.23 64.6083H99.4254V104.414H161.23V64.6083Z" fill="white"/>
<path d="M238.026 64.6083H176.222V104.414H238.026V64.6083Z" fill="white"/>
<path d="M314.823 64.6083H253.019V104.414H314.823V64.6083Z" fill="white"/>
<path d="M84.4332 120.949H22.6288V160.755H84.4332V120.949Z" fill="white"/>
<path d="M161.23 120.949H99.4254V160.755H161.23V120.949Z" fill="white"/>
<path d="M238.026 120.949H176.222V160.755H238.026V120.949Z" fill="white"/>
<path d="M314.823 120.949H253.019V160.755H314.823V120.949Z" fill="white"/>
<path d="M84.4332 177.29H22.6288V217.096H84.4332V177.29Z" fill="white"/>
<path d="M161.23 177.29H99.4254V217.096H161.23V177.29Z" fill="white"/>
<path d="M238.026 177.29H176.222V217.096H238.026V177.29Z" fill="white"/>
<path d="M314.823 177.29H253.019V217.096H314.823V177.29Z" fill="white"/>
<path d="M88.3802 48.992C93.5003 48.992 97.6509 44.8793 97.6509 39.806C97.6509 34.7327 93.5003 30.62 88.3802 30.62C83.2602 30.62 79.1096 34.7327 79.1096 39.806C79.1096 44.8793 83.2602 48.992 88.3802 48.992Z" fill="white"/>
<path d="M241.655 48.992C246.775 48.992 250.926 44.8793 250.926 39.806C250.926 34.7328 246.775 30.6201 241.655 30.6201C236.535 30.6201 232.384 34.7328 232.384 39.806C232.384 44.8793 236.535 48.992 241.655 48.992Z" fill="white"/>
<path d="M92.0885 0H84.672V42.2556H92.0885V0Z" fill="#E6E6E6"/>
<path d="M245.363 0H237.947V42.2556H245.363V0Z" fill="#E6E6E6"/>
<path d="M297.897 84.5113C297.894 87.8369 296.68 91.0497 294.477 93.5594C292.275 96.069 289.233 97.7069 285.91 98.1721C282.586 98.6373 279.205 97.8985 276.388 96.0915C273.57 94.2845 271.505 91.5308 270.572 88.3361C269.64 85.1415 269.902 81.7206 271.31 78.702C272.719 75.6835 275.18 73.27 278.24 71.9051C281.301 70.5402 284.756 70.3156 287.97 71.2724C291.184 72.2293 293.942 74.3034 295.737 77.1136C297.15 79.3267 297.9 81.8923 297.897 84.5113Z" fill="#30F0F2"/>
<path d="M295.737 77.1136L281.979 90.7432C281.115 89.4167 276.297 83.2523 276.297 83.2523C276.915 82.6341 277.574 82.0578 278.269 81.5276L282.264 86.8051L294.126 75.0515C294.728 75.6869 295.267 76.3773 295.737 77.1136Z" fill="white"/>
<path d="M144.304 140.852C144.301 144.178 143.086 147.391 140.884 149.9C138.682 152.41 135.64 154.048 132.316 154.513C128.993 154.978 125.612 154.239 122.794 152.432C119.977 150.625 117.912 147.872 116.979 144.677C116.046 141.482 116.308 138.061 117.717 135.043C119.126 132.024 121.586 129.611 124.647 128.246C127.708 126.881 131.162 126.656 134.377 127.613C137.591 128.57 140.349 130.644 142.144 133.454C143.557 135.668 144.306 138.233 144.304 140.852Z" fill="#30F0F2"/>
<path d="M142.144 133.454L128.386 147.084C127.522 145.758 122.704 139.593 122.704 139.593C123.322 138.975 123.98 138.399 124.676 137.868L128.671 143.146L140.533 131.392C141.134 132.028 141.674 132.718 142.144 133.454Z" fill="white"/>
<path d="M67.5072 140.852C67.504 144.178 66.2898 147.391 64.0875 149.9C61.8853 152.41 58.843 154.048 55.5197 154.513C52.1964 154.978 48.8153 154.239 45.9976 152.432C43.18 150.625 41.1151 147.872 40.1823 144.677C39.2495 141.482 39.5116 138.061 40.9203 135.043C42.329 132.024 44.7897 129.611 47.8503 128.246C50.9109 126.881 54.3658 126.656 57.5802 127.613C60.7946 128.57 63.5525 130.644 65.3473 133.454C66.7606 135.668 67.5097 138.233 67.5072 140.852Z" fill="#30F0F2"/>
<path d="M65.3473 133.454L51.5896 147.084C50.7249 145.758 45.9076 139.593 45.9076 139.593C46.525 138.975 47.1838 138.399 47.8795 137.868L51.8742 143.146L63.7362 131.392C64.3378 132.028 64.8772 132.718 65.3473 133.454Z" fill="white"/>
<g clip-path="url(#clip0)">
<path d="M432.324 367.714L425.495 367.714L422.247 341.662L432.325 341.663L432.324 367.714Z" fill="#9E616A"/>
<path d="M434.065 374.261L412.048 374.26V373.985C412.048 371.737 412.951 369.581 414.558 367.991C416.165 366.401 418.345 365.508 420.618 365.508H420.618L434.066 365.509L434.065 374.261Z" fill="#2F2E41"/>
<path d="M407.817 367.714L400.988 367.714L397.74 341.662L407.818 341.663L407.817 367.714Z" fill="#9E616A"/>
<path d="M409.558 374.261L387.54 374.26V373.985C387.541 371.737 388.443 369.581 390.051 367.991C391.658 366.401 393.837 365.508 396.11 365.508H396.111L409.559 365.509L409.558 374.261Z" fill="#2F2E41"/>
<path d="M328.288 185.167C328.834 185.909 329.537 186.524 330.349 186.969C331.161 187.413 332.062 187.676 332.988 187.738C333.914 187.801 334.842 187.662 335.708 187.332C336.573 187.001 337.355 186.487 337.998 185.825L351.51 191.044L356.719 183.696L337.533 176.591C336.338 175.596 334.815 175.07 333.253 175.112C331.691 175.153 330.199 175.76 329.06 176.817C327.92 177.875 327.212 179.308 327.07 180.847C326.927 182.386 327.361 183.923 328.288 185.167V185.167Z" fill="#9E616A"/>
<path d="M407.73 229.687L389.941 235.427L395.883 360.04L409.613 360.376L416.64 272.497L418.235 360.029L435.212 360.955L441.47 229.687H407.73Z" fill="#2F2E41"/>
<path d="M395.727 156.229L441.386 146.417L446.463 185.303L442.235 203.883L443.929 232.119C443.929 232.119 407.826 249.892 389.941 235.427C389.941 235.427 404.316 198.081 395.983 180.598L395.727 156.229Z" fill="#E4E4E4"/>
<path d="M403.635 161.73L395.727 156.229C395.727 156.229 395.26 155.59 388.671 163.209C382.081 170.828 368.714 182.948 368.714 182.948L346.434 174.685L342.376 189.518L368.269 201.453L404.927 177.238L403.635 161.73Z" fill="#E4E4E4"/>
<path d="M443.937 246.695C444.776 246.303 445.518 245.734 446.111 245.028C446.703 244.322 447.132 243.495 447.367 242.607C447.602 241.719 447.637 240.791 447.47 239.888C447.302 238.985 446.937 238.13 446.4 237.382L454.101 225.224L447.772 218.793L437.141 236.113C435.93 237.09 435.123 238.472 434.874 239.997C434.624 241.523 434.949 243.086 435.787 244.39C436.625 245.695 437.917 246.65 439.419 247.075C440.921 247.499 442.529 247.365 443.937 246.695Z" fill="#9E616A"/>
<path d="M434.264 154.077L441.386 146.417C441.386 146.417 449.321 143.684 455.804 157.807C462.287 171.93 469.527 200.577 469.527 200.577L452.598 232.832L439.45 227.021L452.598 200.35L438.685 180.598L434.264 154.077Z" fill="#E4E4E4"/>
<path d="M422.189 143.228C429.371 139.344 432.01 130.437 428.084 123.333C424.158 116.229 415.153 113.619 407.971 117.502C400.788 121.385 398.149 130.292 402.075 137.396C406.001 144.5 415.006 147.111 422.189 143.228Z" fill="#9E616A"/>
<path d="M427.577 117.256C426.876 114.345 424.423 112.048 421.6 110.97C418.778 109.893 415.635 109.903 412.652 110.405C407.701 111.237 403.078 113.348 398.523 115.439L402.034 117.1L397.189 117.375L400.933 119.29C399.933 120.043 399.172 121.063 398.741 122.231C398.31 123.398 398.227 124.663 398.501 125.876C398.693 126.669 399.208 127.544 400.033 127.571C401.03 127.604 401.551 126.455 402.249 125.75C403.177 124.812 404.644 124.604 405.958 124.781C407.273 124.958 408.521 125.458 409.818 125.735C411.458 126.073 413.154 126.054 414.786 125.68C416.418 125.306 417.949 124.585 419.272 123.568L423.941 134.688C423.897 134.268 423.951 133.845 424.1 133.45C424.249 133.055 424.488 132.699 424.799 132.411C425.11 132.122 425.484 131.908 425.892 131.787C426.3 131.665 426.731 131.638 427.151 131.708C427.572 131.778 427.97 131.943 428.315 132.191C428.66 132.438 428.943 132.761 429.141 133.135C429.339 133.508 429.447 133.922 429.456 134.343C429.466 134.765 429.377 135.183 429.196 135.564C431.218 132.549 432.843 129.124 432.899 125.506C432.955 121.889 431.141 118.079 427.821 116.561" fill="#2F2E41"/>
<path d="M255.817 341.877L249.504 351.695L253.181 338.914C245.417 330.901 234.668 325.039 234.668 325.039C234.668 325.039 221.433 346.554 224.996 359.789C228.558 373.023 237.756 375.549 247.568 372.965C257.38 370.382 264.091 363.666 260.529 350.432C259.736 347.486 258.014 344.594 255.817 341.877Z" fill="#F2F2F2"/>
<path d="M247.464 352.673L247.64 353.325C249.641 360.918 249.941 367.175 248.525 372.009C248.506 372.08 248.482 372.148 248.463 372.219L248.133 372.123L247.817 372.026C249.42 366.787 248.704 360.166 246.96 353.542C246.906 353.328 246.851 353.111 246.79 352.896C246.026 350.098 245.091 347.312 244.073 344.633C243.996 344.425 243.915 344.215 243.834 344.004C242.471 340.476 240.983 337.154 239.604 334.29C239.507 334.088 239.407 333.886 239.308 333.687C236.954 328.85 234.958 325.422 234.509 324.665C234.456 324.572 234.425 324.522 234.419 324.51L234.705 324.341L234.708 324.337L234.998 324.167C235.004 324.179 235.109 324.348 235.293 324.667C235.987 325.853 237.829 329.086 239.953 333.431C240.047 333.627 240.147 333.829 240.244 334.032C241.365 336.354 242.555 338.967 243.686 341.74C243.971 342.436 244.244 343.125 244.504 343.807C244.589 344.017 244.67 344.227 244.747 344.435C245.848 347.33 246.753 350.076 247.464 352.673Z" fill="white"/>
<path d="M239.953 333.431C239.742 333.517 239.527 333.605 239.308 333.687C238.713 333.91 238.107 334.103 237.492 334.265C234.872 334.959 232.128 335.062 229.462 334.568C229.371 334.775 229.28 334.982 229.186 335.194C231.998 335.74 234.898 335.643 237.666 334.911C238.322 334.738 238.969 334.531 239.604 334.29C239.82 334.209 240.034 334.122 240.244 334.032C241.981 333.3 243.595 332.312 245.032 331.101C244.843 330.96 244.659 330.822 244.479 330.686C243.115 331.816 241.59 332.741 239.953 333.431Z" fill="white"/>
<path d="M244.504 343.807C244.282 343.879 244.059 343.945 243.834 344.005C243.766 344.026 243.694 344.045 243.625 344.063C240.785 344.811 237.804 344.868 234.937 344.23C232.07 343.593 229.4 342.279 227.157 340.4C227.078 340.625 226.999 340.85 226.924 341.077C229.243 342.965 231.983 344.279 234.918 344.91C237.852 345.542 240.897 345.473 243.799 344.709C243.891 344.685 243.982 344.661 244.073 344.633C244.3 344.57 244.524 344.504 244.747 344.435C248.185 343.34 251.232 341.289 253.523 338.527C253.368 338.364 253.212 338.201 253.053 338.039C250.831 340.744 247.861 342.748 244.504 343.807Z" fill="white"/>
<path d="M247.464 352.673C247.241 352.753 247.016 352.826 246.79 352.896C246.547 352.97 246.304 353.041 246.059 353.105C242.242 354.106 238.199 353.856 234.537 352.394C230.875 350.932 227.79 348.336 225.744 344.995C225.667 345.295 225.59 345.592 225.52 345.891C227.699 349.188 230.873 351.722 234.592 353.133C238.31 354.544 242.384 354.76 246.233 353.751C246.478 353.687 246.722 353.619 246.96 353.542C247.19 353.475 247.415 353.402 247.64 353.325C252.16 351.753 255.907 348.539 258.122 344.337C257.989 344.116 257.847 343.901 257.705 343.682C255.603 347.882 251.93 351.107 247.464 352.673Z" fill="white"/>
<path d="M502.071 342.901L495.85 352.576L499.474 339.981C491.822 332.085 481.23 326.308 481.23 326.308C481.23 326.308 468.187 347.51 471.698 360.552C475.208 373.594 484.273 376.084 493.942 373.538C503.612 370.991 510.225 364.373 506.715 351.331C505.933 348.428 504.236 345.579 502.071 342.901Z" fill="#F2F2F2"/>
<path d="M493.84 353.54L494.013 354.183C495.985 361.666 496.28 367.831 494.885 372.595C494.866 372.665 494.843 372.732 494.824 372.802L494.499 372.707L494.187 372.612C495.767 367.448 495.062 360.924 493.343 354.397C493.29 354.186 493.236 353.972 493.175 353.759C492.423 351.003 491.501 348.256 490.498 345.617C490.422 345.412 490.342 345.205 490.262 344.997C488.919 341.52 487.452 338.246 486.093 335.424C485.998 335.224 485.9 335.025 485.802 334.83C483.482 330.063 481.515 326.685 481.073 325.939C481.021 325.847 480.99 325.798 480.984 325.786L481.266 325.619L481.269 325.615L481.554 325.448C481.561 325.46 481.665 325.627 481.845 325.94C482.529 327.11 484.344 330.296 486.437 334.577C486.531 334.771 486.629 334.97 486.724 335.17C487.83 337.458 489.002 340.033 490.116 342.766C490.397 343.452 490.666 344.131 490.923 344.803C491.006 345.009 491.086 345.217 491.162 345.422C492.247 348.275 493.139 350.981 493.84 353.54Z" fill="white"/>
<path d="M486.437 334.577C486.229 334.663 486.018 334.749 485.802 334.83C485.216 335.05 484.619 335.24 484.012 335.4C481.43 336.083 478.726 336.185 476.099 335.698C476.009 335.902 475.919 336.106 475.827 336.315C478.598 336.853 481.456 336.758 484.184 336.036C484.831 335.866 485.468 335.661 486.093 335.424C486.306 335.344 486.517 335.258 486.724 335.17C488.436 334.449 490.027 333.475 491.443 332.281C491.257 332.143 491.076 332.006 490.898 331.872C489.554 332.986 488.051 333.898 486.437 334.577Z" fill="white"/>
<path d="M490.923 344.803C490.704 344.874 490.484 344.939 490.262 344.997C490.195 345.018 490.124 345.037 490.057 345.055C487.258 345.792 484.32 345.848 481.495 345.22C478.669 344.592 476.038 343.297 473.828 341.445C473.75 341.667 473.672 341.889 473.598 342.113C475.883 343.973 478.583 345.268 481.476 345.89C484.368 346.512 487.368 346.444 490.228 345.691C490.318 345.668 490.408 345.644 490.498 345.617C490.722 345.554 490.942 345.49 491.162 345.422C494.55 344.343 497.553 342.322 499.811 339.6C499.657 339.439 499.504 339.278 499.347 339.119C497.158 341.784 494.23 343.759 490.923 344.803Z" fill="white"/>
<path d="M493.84 353.54C493.619 353.618 493.398 353.69 493.175 353.759C492.936 353.832 492.697 353.902 492.455 353.966C488.693 354.952 484.709 354.706 481.1 353.265C477.491 351.825 474.451 349.266 472.435 345.973C472.36 346.269 472.283 346.562 472.214 346.856C474.362 350.106 477.49 352.603 481.154 353.993C484.819 355.384 488.833 355.597 492.627 354.602C492.868 354.539 493.108 354.472 493.343 354.397C493.57 354.33 493.792 354.258 494.013 354.183C498.467 352.633 502.16 349.466 504.343 345.325C504.212 345.107 504.072 344.895 503.931 344.68C501.86 348.819 498.24 351.997 493.84 353.54Z" fill="white"/>
<path d="M373.31 102.547C373.31 79.4056 356.999 60.6457 336.878 60.6457C316.757 60.6457 300.445 79.4056 300.445 102.547C300.445 123.535 313.863 140.919 331.37 143.972V147.921C331.37 148.667 331.67 149.382 332.203 149.91C332.737 150.437 333.46 150.733 334.214 150.733H339.541C340.295 150.733 341.019 150.437 341.552 149.91C342.085 149.382 342.385 148.667 342.385 147.921V143.972C359.893 140.919 373.31 123.535 373.31 102.547Z" fill="#30F0F2"/>
<path d="M330.495 147.35C331.634 146.291 332.993 145.489 334.476 144.998C335.959 144.508 337.531 144.34 339.086 144.508C340.653 144.687 342.156 145.224 343.477 146.076C344.798 146.928 345.901 148.072 346.699 149.418C347.497 150.724 347.999 152.186 348.169 153.702C348.339 155.219 348.173 156.754 347.683 158.2C346.725 161.086 344.69 163.487 342.603 165.652C340.413 167.922 338.033 170.016 335.974 172.409C332.58 176.378 330.21 181.103 329.068 186.177C327.925 191.251 328.044 196.524 329.414 201.543C331.22 207.904 334.948 213.567 340.1 217.773C340.754 218.302 341.428 218.805 342.121 219.284C342.923 219.839 343.683 218.538 342.887 217.988C337.294 214.074 333.16 208.446 331.126 201.975C329.583 196.933 329.386 191.581 330.553 186.441C331.72 181.3 334.212 176.546 337.787 172.64C339.958 170.269 342.389 168.147 344.559 165.775C346.638 163.503 348.534 160.939 349.346 157.938C349.757 156.412 349.859 154.82 349.646 153.255C349.433 151.69 348.909 150.182 348.104 148.817C347.303 147.423 346.219 146.207 344.921 145.246C343.622 144.285 342.137 143.6 340.559 143.233C337.383 142.55 334.063 143.119 331.304 144.818C330.628 145.244 329.997 145.737 329.421 146.288C328.716 146.96 329.79 148.021 330.495 147.35V147.35Z" fill="#3F3D56"/>
<path d="M544.311 391.155L552.494 391.155L556.386 359.938L544.31 359.938L544.311 391.155Z" fill="#FFB6B6"/>
<path d="M542.224 388.513L558.338 388.512H558.339C561.062 388.512 563.674 389.582 565.6 391.487C567.526 393.392 568.608 395.975 568.608 398.669V398.999L542.225 399L542.224 388.513Z" fill="#2F2E41"/>
<path d="M495.881 384.273L503.682 386.713L516.913 358.112L505.398 354.509L495.881 384.273Z" fill="#FFB6B6"/>
<path d="M494.696 381.131L510.06 385.937L510.061 385.938C512.657 386.75 514.821 388.55 516.077 390.94C517.332 393.331 517.576 396.117 516.754 398.685L516.654 399L491.499 391.13L494.696 381.131Z" fill="#2F2E41"/>
<path d="M514.304 248.585L509.764 261.251L509.635 329.633L496.758 376.452L512.565 380.816L530.025 336.67L535.626 297.894L543.006 336.895L541.99 383.25H558.575L559.826 311.816C560.178 291.754 556.629 271.813 549.372 253.076V253.076L514.304 248.585Z" fill="#2F2E41"/>
<path d="M508.897 197.275H535.703L546.904 208.354L550.25 254.149L509.764 260.593L496.758 216.898L503.841 198.328L508.897 197.275Z" fill="#E4E4E4"/>
<path d="M499.256 217.335L457.983 201.976L456.909 195.627L482.938 173.842L491.601 180.269L475.899 197.275L503.841 198.328L499.256 217.335Z" fill="#E4E4E4"/>
<path d="M487.944 182.752C491.63 182.752 494.618 179.797 494.618 176.151C494.618 172.505 491.63 169.549 487.944 169.549C484.258 169.549 481.27 172.505 481.27 176.151C481.27 179.797 484.258 182.752 487.944 182.752Z" fill="#FFB6B6"/>
<path d="M503.423 184.467L506.438 171.016C506.967 168.647 507.963 166.404 509.368 164.416C510.774 162.428 512.562 160.733 514.63 159.429C516.698 158.125 519.005 157.236 521.421 156.815C523.836 156.393 526.312 156.446 528.707 156.971C531.101 157.497 533.368 158.484 535.376 159.876C537.385 161.268 539.097 163.038 540.414 165.085C541.73 167.131 542.626 169.415 543.05 171.804C543.474 174.194 543.418 176.643 542.885 179.01L539.869 192.462C539.724 193.103 539.328 193.662 538.767 194.015C538.207 194.369 537.527 194.487 536.878 194.346L505.327 187.425C504.679 187.282 504.114 186.89 503.757 186.336C503.399 185.781 503.279 185.109 503.423 184.467Z" fill="#2F2E41"/>
<path d="M524.2 189.537C531.459 187.457 535.639 179.949 533.536 172.769C531.432 165.589 523.842 161.454 516.583 163.535C509.323 165.616 505.143 173.123 507.247 180.303C509.35 187.484 516.94 191.618 524.2 189.537Z" fill="#FFB6B6"/>
<path d="M501.886 171.146C502.738 167.367 505.071 164.077 508.372 161.996C511.674 159.916 515.675 159.216 519.498 160.05L522.218 160.647C526.039 161.49 529.366 163.797 531.469 167.063C533.572 170.328 534.28 174.286 533.436 178.067L533.376 178.336L527.628 177.075L526.885 171.215L525.276 176.559L522.305 175.908L521.93 172.951L521.118 175.647L501.826 171.415L501.886 171.146Z" fill="#2F2E41"/>
<path d="M515.704 191.288C515.515 190.868 515.45 190.403 515.517 189.947C515.584 189.492 515.779 189.064 516.08 188.714C520.178 183.923 526.46 174.789 522.489 167.435L522.204 166.907L537.755 170.318L532.577 193.41L517.897 192.777C517.749 192.771 517.601 192.752 517.456 192.72C517.07 192.635 516.71 192.461 516.406 192.213C516.101 191.964 515.861 191.647 515.704 191.288Z" fill="#2F2E41"/>
<path d="M534.637 197.552L578.295 203.692L580.737 209.66L560.104 236.51L550.237 232.095L561.837 212.125L534.329 217.091L534.637 197.552Z" fill="#E4E4E4"/>
<path d="M600 110.504C600 82.8628 580.517 60.4552 556.484 60.4552C532.45 60.4552 512.967 82.8628 512.967 110.504C512.967 135.573 528.994 156.337 549.906 159.984V164.7C549.906 165.591 550.263 166.446 550.9 167.076C551.537 167.706 552.401 168.06 553.302 168.06H559.665C560.566 168.06 561.43 167.706 562.067 167.076C562.704 166.446 563.062 165.591 563.062 164.7V159.984C583.974 156.337 600 135.573 600 110.504Z" fill="#30F0F2"/>
<path d="M548.755 163.916C550.137 162.631 551.784 161.659 553.583 161.066C555.382 160.474 557.289 160.275 559.174 160.483C561.025 160.699 562.802 161.328 564.371 162.324C565.94 163.32 567.259 164.656 568.228 166.23C569.215 167.784 569.85 169.531 570.089 171.351C570.327 173.171 570.165 175.02 569.612 176.772C568.538 180.211 566.182 183.09 563.725 185.67C561.105 188.423 558.234 190.94 555.729 193.801C551.645 198.496 548.774 204.101 547.365 210.136C545.955 216.17 546.049 222.453 547.637 228.444C549.761 236.144 554.25 243.002 560.484 248.07C561.241 248.679 562.02 249.261 562.821 249.814C563.624 250.369 564.383 249.068 563.587 248.517C556.912 243.85 551.967 237.147 549.512 229.434C547.647 223.414 547.383 217.02 548.745 210.869C550.106 204.719 553.048 199.019 557.285 194.321C559.861 191.477 562.761 188.944 565.366 186.128C567.86 183.431 570.15 180.403 571.175 176.84C571.691 175.04 571.841 173.157 571.616 171.299C571.391 169.442 570.796 167.647 569.866 166.018C568.939 164.353 567.674 162.895 566.151 161.735C564.628 160.576 562.879 159.74 561.014 159.281C557.224 158.419 553.243 159.072 549.937 161.098C549.126 161.605 548.371 162.194 547.682 162.854C546.978 163.526 548.052 164.587 548.755 163.916Z" fill="#3F3D56"/>
<path d="M554.018 244.145C557.704 244.145 560.692 241.19 560.692 237.544C560.692 233.898 557.704 230.942 554.018 230.942C550.332 230.942 547.344 233.898 547.344 237.544C547.344 241.19 550.332 244.145 554.018 244.145Z" fill="#FFB6B6"/>
<path d="M484.469 178.004C484.119 178.551 483.271 178.472 482.794 178.13C482.133 177.654 482.347 176.739 482.802 176.199C484.25 174.48 486.644 176.294 486.967 178.001C487.087 178.833 486.957 179.682 486.594 180.442C486.231 181.202 485.65 181.84 484.924 182.277C483.273 183.245 481.127 182.76 479.707 181.601C476.745 179.184 477.552 174.346 480.842 172.597C482.942 171.481 485.596 171.971 487.664 172.906C489.993 173.958 491.995 175.571 494.148 176.915C498.872 179.84 504.217 181.645 509.763 182.189C510.734 182.287 510.727 180.784 509.763 180.687C506.69 180.373 503.672 179.654 500.791 178.55C497.94 177.407 495.234 175.939 492.728 174.173C490.193 172.455 487.545 170.785 484.407 170.501C483.141 170.355 481.858 170.543 480.69 171.046C479.521 171.549 478.507 172.349 477.753 173.365C477.081 174.274 476.632 175.325 476.44 176.434C476.247 177.544 476.318 178.683 476.645 179.761C477.039 180.889 477.728 181.893 478.642 182.671C479.557 183.45 480.663 183.975 481.849 184.193C482.991 184.406 484.171 184.262 485.226 183.78C486.281 183.298 487.157 182.502 487.733 181.504C488.888 179.529 488.85 176.875 487.106 175.237C486.606 174.735 485.98 174.372 485.292 174.187C484.604 174.002 483.879 174.001 483.19 174.184C482.556 174.396 481.998 174.786 481.584 175.307C481.171 175.828 480.919 176.456 480.861 177.116C480.693 179.68 484.373 180.963 485.78 178.762C486.303 177.943 484.99 177.188 484.469 178.004Z" fill="#3F3D56"/>
<path d="M180.769 258.695L178.764 261.183L171.673 257.034L173.678 254.546L180.769 258.695Z" fill="#E4E4E4"/>
<path d="M188.169 269.386L189.94 272L182.49 275.665L180.719 273.051L188.169 269.386Z" fill="#E4E4E4"/>
<path d="M195.88 258.022L199.419 258.145L199.067 265.47L195.528 265.346L195.88 258.022Z" fill="#E4E4E4"/>
<path d="M264.26 60.5023L262.255 62.9903L255.164 58.8412L257.169 56.3528L264.26 60.5023Z" fill="#E4E4E4"/>
<path d="M271.659 71.1927L273.43 73.8068L265.981 77.4719L264.21 74.8578L271.659 71.1927Z" fill="#E4E4E4"/>
<path d="M279.371 59.8287L282.91 59.9523L282.558 67.2764L279.019 67.1528L279.371 59.8287Z" fill="#E4E4E4"/>
<path d="M461.096 86.5277L459.091 89.0156L452 84.8666L454.005 82.3782L461.096 86.5277Z" fill="#E4E4E4"/>
<path d="M468.495 97.2181L470.266 99.8322L462.817 103.497L461.046 100.883L468.495 97.2181Z" fill="#E4E4E4"/>
<path d="M476.207 85.854L479.746 85.9777L479.393 93.3018L475.854 93.1782L476.207 85.854Z" fill="#E4E4E4"/>
<path d="M400.881 49.9921L398.876 52.48L391.785 48.331L393.79 45.8426L400.881 49.9921Z" fill="#E4E4E4"/>
<path d="M408.281 60.6825L410.052 63.2966L402.602 66.9616L400.831 64.3476L408.281 60.6825Z" fill="#E4E4E4"/>
<path d="M415.992 49.3185L419.531 49.4421L419.179 56.7662L415.64 56.6426L415.992 49.3185Z" fill="#E4E4E4"/>
<path d="M462.101 237.029L460.096 239.917L467.187 244.733L469.192 241.845L462.101 237.029Z" fill="#E4E4E4"/>
<path d="M469.142 258.508L470.913 261.542L478.362 257.288L476.591 254.253L469.142 258.508Z" fill="#E4E4E4"/>
<path d="M483.95 249.564L487.489 249.708L487.842 241.207L484.303 241.063L483.95 249.564Z" fill="#E4E4E4"/>
<path d="M311.674 368.092L317.804 367.154L313.601 318.707L299.939 321.209L311.674 368.092Z" fill="#FFB6B6"/>
<path d="M309.801 366.351L321.874 364.505L321.875 364.505C323.915 364.193 325.997 364.695 327.663 365.902C329.329 367.108 330.443 368.92 330.758 370.938L330.797 371.186L311.029 374.209L309.801 366.351Z" fill="#2F2E41"/>
<path d="M247.241 367.492L253.439 367.752L260.977 324.712L247.315 324.713L247.241 367.492Z" fill="#FFB6B6"/>
<path d="M245.746 365.423L257.952 365.937H257.953C260.015 366.025 261.959 366.919 263.355 368.423C264.752 369.927 265.487 371.919 265.399 373.959L265.389 374.209L245.404 373.367L245.746 365.423Z" fill="#2F2E41"/>
<path d="M259.444 227.265C259.151 227.183 258.852 227.128 258.549 227.1L262.413 195.819L275.523 168.358C276.348 166.631 276.48 164.658 275.892 162.839C275.304 161.019 274.04 159.487 272.356 158.553C270.671 157.618 268.691 157.35 266.815 157.803C264.938 158.256 263.305 159.396 262.245 160.992V160.992C258.809 166.167 256.21 171.84 254.541 177.807L249.033 197.504L253.061 231.283C252.906 232.236 253.033 233.212 253.427 234.094C253.82 234.976 254.462 235.728 255.277 236.257C256.092 236.787 257.044 237.072 258.019 237.079C258.993 237.087 259.95 236.815 260.772 236.297C261.594 235.779 262.248 235.037 262.654 234.161C263.06 233.284 263.202 232.31 263.061 231.356C262.921 230.402 262.505 229.508 261.863 228.782C261.221 228.056 260.381 227.529 259.444 227.265H259.444Z" fill="#FFB6B6"/>
<path d="M267.403 198.467L250.84 179.725L259.045 160.636C260.12 158.136 262.14 156.151 264.673 155.103C267.207 154.056 270.055 154.029 272.608 155.029C275.161 156.03 277.218 157.977 278.34 160.457C279.462 162.936 279.559 165.751 278.612 168.3L267.403 198.467Z" fill="#2F2E41"/>
<path d="M294.937 138.72C298.922 131.51 296.243 122.469 288.953 118.528C281.663 114.586 272.523 117.236 268.538 124.446C264.553 131.657 267.232 140.697 274.522 144.639C281.812 148.58 290.952 145.93 294.937 138.72Z" fill="#FFB6B6"/>
<path d="M284.253 113.507H274.536C268.165 113.507 263.001 119.253 263.001 126.342L263.451 143.536C270.334 144.383 277.067 146.164 283.459 148.829L284.366 144.998L286.155 150.043C287.746 150.806 289.323 151.64 290.888 152.545C289.062 144.061 288.311 135.597 289.564 129.022H292.855V125.459L293.972 129.022H299.939V129.022C299.939 126.984 299.534 124.967 298.745 123.085C297.957 121.202 296.802 119.492 295.345 118.051C293.888 116.61 292.159 115.468 290.256 114.688C288.353 113.908 286.313 113.507 284.253 113.507Z" fill="#2F2E41"/>
<path d="M315.938 321.339L314.53 321.674L313.348 299.938L304.746 234.875L294.879 210.101L299.686 192.834C299.686 192.834 305.252 180.822 291.337 171.563L280.205 153.045C272.515 148.072 266.189 151.324 262.816 159.777C259.877 167.142 257.596 176.46 258.953 186.078C261.992 207.621 264.519 210.101 264.519 210.101C264.519 210.101 245.544 230.871 249.592 257.397L247.336 326.076L245.272 325.992L245.046 331.447L263.078 332.179L263.304 326.724L261.808 326.663L268.314 299.438L277.928 263.403L294.626 307.446L300.243 325.078L298.392 325.518L299.685 330.826L317.23 326.647L315.938 321.339Z" fill="#2F2E41"/>
<path d="M328.329 198.011C328.125 198.234 327.942 198.474 327.781 198.729L301.214 181.333L282.233 157.463C281.04 155.961 279.314 154.963 277.406 154.67C275.497 154.377 273.547 154.811 271.949 155.884C270.351 156.957 269.224 158.59 268.795 160.453C268.366 162.315 268.668 164.27 269.638 165.921C272.783 171.274 276.753 176.108 281.405 180.251L296.76 193.926L329.112 205.455C329.905 206.017 330.844 206.34 331.818 206.387C332.792 206.433 333.758 206.2 334.601 205.716C335.444 205.232 336.128 204.517 336.57 203.657C337.012 202.798 337.193 201.83 337.093 200.871C336.992 199.912 336.613 199.002 336.001 198.251C335.39 197.5 334.572 196.94 333.646 196.638C332.721 196.336 331.726 196.304 330.783 196.548C329.84 196.792 328.988 197.3 328.329 198.011H328.329Z" fill="#FFB6B6"/>
<path d="M305.838 178.101L281.486 184.383L267.886 168.593C266.105 166.525 265.212 163.851 265.397 161.141C265.581 158.431 266.83 155.9 268.875 154.087C270.921 152.275 273.601 151.325 276.345 151.44C279.089 151.555 281.678 152.726 283.561 154.704L305.838 178.101Z" fill="#2F2E41"/>
<path d="M494.592 374.719H167.059C166.899 374.719 166.746 374.656 166.633 374.544C166.52 374.433 166.456 374.281 166.456 374.123C166.456 373.965 166.52 373.813 166.633 373.702C166.746 373.59 166.899 373.527 167.059 373.527H494.592C494.752 373.527 494.905 373.59 495.018 373.702C495.131 373.813 495.195 373.965 495.195 374.123C495.195 374.281 495.131 374.433 495.018 374.544C494.905 374.656 494.752 374.719 494.592 374.719Z" fill="#CACACA"/>
</g>
<defs>
<clipPath id="clip0">
<rect width="451.714" height="353.157" fill="white" transform="translate(148.286 45.8426)"/>
</clipPath>
</defs>
</svg>
