<svg width="259" height="65" viewBox="0 0 259 65" fill="none" xmlns="http://www.w3.org/2000/svg">
<path d="M25.056 49H14.88C11.04 49 8.256 48.264 6.528 46.792C4.832 45.288 3.984 42.856 3.984 39.496V14.824H10.656V39.496C10.656 40.84 10.96 41.768 11.568 42.28C12.176 42.792 13.28 43.048 14.88 43.048H25.056V49ZM33.0626 11.128C34.5666 11.128 35.5426 11.368 35.9906 11.848C36.4386 12.296 36.6626 13.272 36.6626 14.776C36.6626 16.248 36.4226 17.224 35.9426 17.704C35.4946 18.152 34.5186 18.376 33.0146 18.376C31.5426 18.376 30.5666 18.136 30.0866 17.656C29.6386 17.176 29.4146 16.2 29.4146 14.728C29.4146 13.256 29.6386 12.296 30.0866 11.848C30.5666 11.368 31.5586 11.128 33.0626 11.128ZM36.1346 49H29.8946V22.6H36.1346V49ZM61.9294 41.416V42.136C61.7374 44.536 60.7134 46.344 58.8574 47.56C57.0334 48.776 54.7454 49.384 51.9934 49.384C47.9294 49.384 45.0814 48.648 43.4494 47.176C41.9454 45.832 41.1934 43.848 41.1934 41.224V40.648H46.8574C46.8574 42.12 47.2414 43.128 48.0094 43.672C48.7774 44.216 50.1054 44.488 51.9934 44.488C54.5534 44.488 55.8334 43.56 55.8334 41.704C55.8334 40.168 55.3854 39.144 54.4894 38.632C54.0734 38.376 53.5454 38.184 52.9054 38.056L48.0574 37.24C43.8334 36.568 41.7214 33.928 41.7214 29.32C41.7214 26.76 42.6494 24.776 44.5054 23.368C46.3934 21.928 48.7774 21.208 51.6574 21.208C58.2174 21.208 61.4974 24.04 61.4974 29.704V30.328H56.0734C56.0094 28.824 55.6094 27.8 54.8734 27.256C54.1374 26.712 53.0974 26.44 51.7534 26.44C50.4414 26.44 49.4494 26.712 48.7774 27.256C48.1054 27.768 47.7694 28.344 47.7694 28.984C47.7694 30.808 48.5054 31.848 49.9774 32.104L55.7854 33.16C59.8814 33.928 61.9294 36.68 61.9294 41.416ZM78.8723 49H74.9843C72.6163 49 70.8083 48.296 69.5603 46.888C68.3443 45.48 67.7363 43.8 67.7363 41.848V27.448H65.0963V22.696H67.7363V17.32H73.9763V22.696H78.3923V27.448H73.9763V41.464C73.9763 42.968 74.6963 43.72 76.1363 43.72H78.8723V49ZM137.472 21.592L128.304 49H123.408L114.192 21.592H120.768L125.856 39.448L130.896 21.592H137.472ZM161.72 36.76H145.736C145.736 39.256 146.12 41.08 146.888 42.232C147.688 43.384 149.272 43.96 151.64 43.96C153.176 43.96 154.312 43.48 155.048 42.52C155.784 41.528 156.152 40.584 156.152 39.688H161.768C161.768 43.112 160.84 45.624 158.984 47.224C157.16 48.824 154.728 49.624 151.688 49.624C148.68 49.624 146.344 49.192 144.68 48.328C141.256 46.568 139.544 41.896 139.544 34.312C139.544 29.8 140.52 26.504 142.472 24.424C144.424 22.312 147.4 21.256 151.4 21.256C158.344 21.256 161.816 25.112 161.816 32.824C161.816 33.656 161.784 34.968 161.72 36.76ZM145.88 32.488H156.152C156.152 30.376 155.752 28.84 154.952 27.88C154.152 26.92 152.92 26.44 151.256 26.44C149.624 26.44 148.312 26.936 147.32 27.928C146.36 28.888 145.88 30.408 145.88 32.488ZM188.737 49H182.497V31.48C182.497 29.912 182.177 28.84 181.537 28.264C180.897 27.688 180.001 27.4 178.849 27.4L173.233 29.752V49H166.993V21.592H171.649L173.089 24.856L180.769 21.304C182.913 21.304 184.769 22.104 186.337 23.704C187.937 25.272 188.737 27.576 188.737 30.616V49ZM206.7 49H202.812C200.444 49 198.636 48.296 197.388 46.888C196.172 45.48 195.564 43.8 195.564 41.848V27.448H192.924V22.696H195.564V17.32H201.804V22.696H206.22V27.448H201.804V41.464C201.804 42.968 202.524 43.72 203.964 43.72H206.7V49ZM226.695 36.616V34.12C226.695 31.752 226.343 29.944 225.639 28.696C224.967 27.448 223.543 26.824 221.367 26.824C217.847 26.824 216.087 29.192 216.087 33.928V36.424C216.087 41.512 217.847 44.056 221.367 44.056C223.639 44.056 225.127 43.208 225.831 41.512C226.407 40.168 226.695 38.536 226.695 36.616ZM232.935 35.176C232.935 41.096 231.815 45.064 229.575 47.08C227.687 48.808 224.951 49.672 221.367 49.672C216.791 49.672 213.703 48.328 212.103 45.64C210.599 43.176 209.847 39.688 209.847 35.176C209.847 30.952 210.599 27.64 212.103 25.24C213.767 22.552 216.791 21.208 221.175 21.208C225.591 21.208 228.647 22.392 230.343 24.76C232.071 27.096 232.935 30.568 232.935 35.176ZM256.742 41.416V42.136C256.55 44.536 255.526 46.344 253.67 47.56C251.846 48.776 249.558 49.384 246.806 49.384C242.742 49.384 239.894 48.648 238.262 47.176C236.758 45.832 236.006 43.848 236.006 41.224V40.648H241.67C241.67 42.12 242.054 43.128 242.822 43.672C243.59 44.216 244.918 44.488 246.806 44.488C249.366 44.488 250.646 43.56 250.646 41.704C250.646 40.168 250.198 39.144 249.302 38.632C248.886 38.376 248.358 38.184 247.718 38.056L242.87 37.24C238.646 36.568 236.534 33.928 236.534 29.32C236.534 26.76 237.462 24.776 239.318 23.368C241.206 21.928 243.59 21.208 246.47 21.208C253.03 21.208 256.31 24.04 256.31 29.704V30.328H250.886C250.822 28.824 250.422 27.8 249.686 27.256C248.95 26.712 247.91 26.44 246.566 26.44C245.254 26.44 244.262 26.712 243.59 27.256C242.918 27.768 242.582 28.344 242.582 28.984C242.582 30.808 243.318 31.848 244.79 32.104L250.598 33.16C254.694 33.928 256.742 36.68 256.742 41.416Z" fill="white"/>
<rect x="87" y="44" width="24" height="5" fill="white"/>
<rect x="87" y="30" width="24" height="5" fill="white"/>
<rect x="87" y="15" width="24" height="5" fill="white"/>
</svg>
